<?xml version="1.0" standalone="no"?><!DOCTYPE svg PUBLIC "-//W3C//DTD SVG 1.1//EN" "http://www.w3.org/Graphics/SVG/1.1/DTD/svg11.dtd"><svg t="1561686950989" class="icon" viewBox="0 0 1024 1024" version="1.1" xmlns="http://www.w3.org/2000/svg" p-id="1971" xmlns:xlink="http://www.w3.org/1999/xlink" width="200" height="200"><defs><style type="text/css"></style></defs><path d="M896 858.368C896 949.632 838.4 1024 768.192 1024H255.808C185.6 1024 128 949.632 128 858.368c0-164.352 39.04-354.368 196.224-354.368 48.576 49.344 114.56 80 187.776 80 73.216 0 139.2-30.656 187.776-80 157.248 0 196.224 190.016 196.224 354.368zM742.4 304C742.4 436.48 639.232 544 512 544c-127.168 0-230.4-107.52-230.4-240C281.6 171.52 384.768 64 512 64s230.4 107.52 230.4 240z" fill="#DDDDDD" p-id="1972"></path></svg>