<?xml version="1.0" standalone="no"?><!DOCTYPE svg PUBLIC "-//W3C//DTD SVG 1.1//EN" "http://www.w3.org/Graphics/SVG/1.1/DTD/svg11.dtd"><svg t="1563631207098" class="icon" viewBox="0 0 1024 1024" version="1.1" xmlns="http://www.w3.org/2000/svg" p-id="4060" xmlns:xlink="http://www.w3.org/1999/xlink" width="200" height="200"><defs><style type="text/css"></style></defs><path d="M512.1 511.9m-447.7 0a447.7 447.7 0 1 0 895.4 0 447.7 447.7 0 1 0-895.4 0Z" fill="#FFD712" p-id="4061"></path><path d="M593.4 708.1c-2.2 4.9-5.5 10.1-9.7 15.9-4.4 5.7-9.9 11-16.7 15.9-6.7 4.9-14.6 9-23.6 12.6-8.9 3.5-19.2 5.3-30.5 5.3s-21.4-1.9-30.1-5.7c-8.6-3.8-16.1-8.4-22.3-13.8-6.3-5.5-11.2-11-15.1-16.7-3.8-5.7-6.5-10.4-8.1-14.2-0.5-1.6-2.5-6.7-5.7-15.5-3.2-8.7-7.3-19.7-12.2-33.3-4.9-13.6-10.3-28.5-16.3-44.8-6-16.3-12.2-33-18.7-50.4-14.6-40.1-31.2-85-49.6-135-6-16.3-11.5-28.7-16.7-37.4-5.2-8.6-10.7-14.6-16.7-17.9-6-3.3-12.6-4.4-19.9-3.3-7.3 1.1-16.4 3.3-27.2 6.6-2.8-13-2.9-25.2-0.5-36.6 2.5-11.3 7.2-21.6 14.3-30.9 7-9.2 16-17.1 26.8-23.6 10.8-6.4 23-11.3 36.6-14.6 27.1-7 49.7-6 67.9 3.3 18.2 9.2 31.3 24.4 39.4 45.5 2.2 6.5 6.7 19 13.8 37.4 7 18.5 15.2 40.3 24.4 65.4 9.2 25.2 19.3 52.3 30.1 81.3s21.4 57.4 31.7 84.9l114.7-273.1c6-12.5 15.5-21.1 28.5-26 13-4.9 26.3-7.8 39.8-8.9 15.7-1.6 32.5-1.4 50.4 0.8-32.5 78-61.8 148-87.8 209.8-10.8 26.6-21.6 52.6-32.5 78-10.8 25.5-20.4 48.3-28.9 68.7-8.4 20.3-15.3 36.8-20.7 49.6-5.4 12.7-8.4 19.7-8.9 20.7z" fill="#FFFFFF" p-id="4062"></path></svg>