<?xml version="1.0" standalone="no"?><!DOCTYPE svg PUBLIC "-//W3C//DTD SVG 1.1//EN" "http://www.w3.org/Graphics/SVG/1.1/DTD/svg11.dtd"><svg t="1562678164779" class="icon" viewBox="0 0 1170 1024" version="1.1" xmlns="http://www.w3.org/2000/svg" p-id="3465" xmlns:xlink="http://www.w3.org/1999/xlink" width="228.515625" height="200"><defs><style type="text/css"></style></defs><path d="M0 0m70.550626 0l987.708758 0q70.550626 0 70.550625 70.550626l0 0q0 70.550626-70.550625 70.550625l-987.708758 0q-70.550626 0-70.550626-70.550625l0 0q0-70.550626 70.550626-70.550626Z" p-id="3466" fill="#ffffff"></path><path d="M0 423.303754m70.550626 0l564.405004 0q70.550626 0 70.550626 70.550625l0 0q0 70.550626-70.550626 70.550626l-564.405004 0q-70.550626 0-70.550626-70.550626l0 0q0-70.550626 70.550626-70.550625Z" p-id="3467" fill="#ffffff"></path><path d="M0 846.607507m70.550626 0l987.708758 0q70.550626 0 70.550625 70.550626l0 0q0 70.550626-70.550625 70.550625l-987.708758 0q-70.550626 0-70.550626-70.550625l0 0q0-70.550626 70.550626-70.550626Z" p-id="3468" fill="#ffffff"></path></svg>