<?xml version="1.0" standalone="no"?><!DOCTYPE svg PUBLIC "-//W3C//DTD SVG 1.1//EN" "http://www.w3.org/Graphics/SVG/1.1/DTD/svg11.dtd"><svg t="1561687059750" class="icon" viewBox="0 0 1024 1024" version="1.1" xmlns="http://www.w3.org/2000/svg" p-id="2699" xmlns:xlink="http://www.w3.org/1999/xlink" width="200" height="200"><defs><style type="text/css"></style></defs><path d="M842.94656 404.02944h-25.3696V307.5072c0-166.6816-135.83872-293.05856-303.01696-293.05856S211.54816 140.8256 211.54816 307.5072v96.03072h-25.37472c-57.216 0-102.99392 43.28448-102.99392 97.024v411.97056c0 53.7344 46.26944 97.024 102.99392 97.024h656.77312c56.72448 0 102.99392-43.2896 102.99392-96.53248V501.05344c0-53.7344-46.26944-97.024-102.99392-97.024z m-290.0736 304.50688v162.69824c0 22.38976-14.43328 40.80128-38.31296 40.80128s-38.31296-18.41152-38.31296-40.80128v-162.69824c-25.87648-13.93152-48.26624-45.27616-48.26624-75.62752 0-45.27616 38.81472-82.09408 86.5792-82.09408s86.57408 36.81792 86.57408 82.09408c0 30.35136-22.38976 61.696-48.26112 75.62752z m178.11968-305.00352H298.12224V304.52224c0-112.9472 97.024-204.99456 216.43776-204.99456 119.41376 0 216.43264 92.04736 216.43264 204.99456v99.01056z" fill="#DDDDDD" p-id="2700"></path></svg>