<?xml version="1.0" standalone="no"?><!DOCTYPE svg PUBLIC "-//W3C//DTD SVG 1.1//EN" "http://www.w3.org/Graphics/SVG/1.1/DTD/svg11.dtd"><svg t="1562639576818" class="icon" viewBox="0 0 1024 1024" version="1.1" xmlns="http://www.w3.org/2000/svg" p-id="2115" xmlns:xlink="http://www.w3.org/1999/xlink" width="200" height="200"><defs><style type="text/css"></style></defs><path d="M1008.64 933.302857l-142.628571-142.628571A484.937143 484.937143 0 0 0 830.902857 146.285714 486.4 486.4 0 0 0 146.285714 146.285714a486.4 486.4 0 0 0 0 688.274286 489.325714 489.325714 0 0 0 341.577143 138.24 477.622857 477.622857 0 0 0 159.451429-27.062857 52.662857 52.662857 0 0 0 32.914285-68.022857 53.394286 53.394286 0 0 0-68.022857-32.914286 380.342857 380.342857 0 1 1 146.285715-89.965714 52.662857 52.662857 0 0 0 0 73.142857l177.737142 177.737143a53.394286 53.394286 0 0 0 37.302858 15.36 54.857143 54.857143 0 0 0 38.034285-15.36 54.125714 54.125714 0 0 0-2.925714-72.411429z" p-id="2116" fill="#ffffff"></path></svg>