<?xml version="1.0" standalone="no"?><!DOCTYPE svg PUBLIC "-//W3C//DTD SVG 1.1//EN" "http://www.w3.org/Graphics/SVG/1.1/DTD/svg11.dtd"><svg t="1563678161819" class="icon" viewBox="0 0 1024 1024" version="1.1" xmlns="http://www.w3.org/2000/svg" p-id="32152" xmlns:xlink="http://www.w3.org/1999/xlink" width="200" height="200"><defs><style type="text/css"></style></defs><path d="M407.968 543.904c-0.96 1.888-2.368 4.256-2.88 6.112l-52.864 176.256c-1.92 7.168 0 14.784 5.248 20a20.16 20.16 0 0 0 14.272 5.728c1.92 0 3.808-0.48 5.728-0.928l176.256-52.864a14.56 14.56 0 0 0 6.176-2.848L982.432 272.768A31.84 31.84 0 0 0 992 249.952a31.936 31.936 0 0 0-9.568-22.88l-107.168-105.76a32.192 32.192 0 0 0-45.28 0L409.408 541.984l-1.44 1.92zM819.52 188.96l33.376-33.344 94.784 94.784-33.344 33.344-94.816-94.784zM467.04 541.472L790.944 217.536l94.848 94.816-323.968 323.904-94.784-94.784z m-65.28 160.544l37.632-126.208 88.608 88.576-126.24 37.632zM992 474.368v306.016c0 47.776-23.84 89.408-59.264 112.48a113.12 113.12 0 0 1-62.08 19.136H153.344a113.6 113.6 0 0 1-62.112-19.136C56 869.92 32 828.448 32 780.416V244.192C32 171.264 86.112 112.608 153.344 112h484.832c16.544 0 29.632 14.848 29.632 32.48 0 18.24-13.088 32.512-29.632 32.512H153.344c-34.176 0-62.112 30.176-62.112 67.232v536.224c0 36.992 27.936 67.232 62.112 67.232h717.312c34.144 0 62.08-30.208 62.08-67.232v-306.016c0-18.24 13.088-32.512 29.6-32.512 16.576-0.032 29.664 14.208 29.664 32.448z" fill="#6dd03a" p-id="32153"></path></svg>