<?xml version="1.0" standalone="no"?><!DOCTYPE svg PUBLIC "-//W3C//DTD SVG 1.1//EN" "http://www.w3.org/Graphics/SVG/1.1/DTD/svg11.dtd"><svg t="1562772113884" class="icon" viewBox="0 0 1024 1024" version="1.1" xmlns="http://www.w3.org/2000/svg" p-id="2851" xmlns:xlink="http://www.w3.org/1999/xlink" width="200" height="200"><defs><style type="text/css"></style></defs><path d="M512.001535 64.74663c-185.286983 0-335.455121 150.163021-335.455121 335.440795 0 185.253214 335.455121 559.065945 335.455121 559.065945S847.452563 585.440639 847.452563 400.187425C847.452563 214.909651 697.264982 64.74663 512.001535 64.74663L512.001535 64.74663zM513.745249 622.067838c-123.519198 0-223.633337-100.132558-223.633337-223.629243 0-123.515105 100.113115-223.624127 223.633337-223.624127 123.501802 0 223.638453 100.109022 223.638453 223.624127C737.383702 521.93528 637.24705 622.067838 513.745249 622.067838L513.745249 622.067838zM513.745249 262.166955c-77.203336 0-139.7693 62.566988-139.7693 139.765207 0 77.19822 62.565964 139.770324 139.7693 139.770324 77.161381 0 139.77544-62.571081 139.77544-139.770324C653.520689 324.733942 590.906629 262.166955 513.745249 262.166955L513.745249 262.166955zM513.745249 262.166955" p-id="2852" fill="#ffffff"></path></svg>