<?xml version="1.0" standalone="no"?><!DOCTYPE svg PUBLIC "-//W3C//DTD SVG 1.1//EN" "http://www.w3.org/Graphics/SVG/1.1/DTD/svg11.dtd"><svg t="1563678210426" class="icon" viewBox="0 0 1024 1024" version="1.1" xmlns="http://www.w3.org/2000/svg" p-id="33012" xmlns:xlink="http://www.w3.org/1999/xlink" width="200" height="200"><defs><style type="text/css"></style></defs><path d="M510.238 18.758c-157.525 0-285.671 128.151-285.671 285.677 0 114.080 67.367 212.466 164.27 258.22-179.148 52.611-310.438 218.241-310.438 414.179 0 12.47 10.106 22.566 22.566 22.566 12.46 0 22.566-10.097 22.566-22.566 0-213.236 173.495-386.723 386.706-386.723 157.525 0 285.682-128.151 285.682-285.677s-128.157-285.677-285.682-285.677v0zM510.238 544.978c-132.642 0-240.538-107.913-240.538-240.543 0-132.638 107.895-240.543 240.538-240.543 132.647 0 240.549 107.906 240.549 240.543 0 132.638-107.895 240.543-240.549 240.543v0zM510.238 544.978z" fill="#70b8f9" p-id="33013"></path><path d="M772.185 633.46c-9.921-7.559-24.066-5.686-31.623 4.231-7.579 9.916-5.686 24.062 4.228 31.644 96.703 73.893 152.149 185.978 152.149 307.492 0 12.475 10.111 22.572 22.567 22.572 12.47 0 22.566-10.097 22.566-22.572 0-135.707-61.924-260.859-169.888-343.369v0zM772.185 633.46z" fill="#70b8f9" p-id="33014"></path></svg>