<?xml version="1.0" standalone="no"?><!DOCTYPE svg PUBLIC "-//W3C//DTD SVG 1.1//EN" "http://www.w3.org/Graphics/SVG/1.1/DTD/svg11.dtd"><svg t="1563678376651" class="icon" viewBox="0 0 1024 1024" version="1.1" xmlns="http://www.w3.org/2000/svg" p-id="33811" xmlns:xlink="http://www.w3.org/1999/xlink" width="200" height="200"><defs><style type="text/css"></style></defs><path d="M931.2 589.696a31.232 31.232 0 0 0-30.4 32v12.032l-0.768 96.256a96 96 0 0 1-96 96H219.2a96 96 0 0 1-96-96V621.696c0-17.664-13.632-32-30.4-32s-30.4 14.336-30.4 32v142.336a128 128 0 0 0 128 128h643.2a128 128 0 0 0 128-128V621.696c0-17.664-13.632-32-30.4-32z" fill="#62a0fe" p-id="33812"></path><path d="M489.024 730.56l0.512 0.32 0.896 0.896c0.128 0.128 0.192 0.384 0.384 0.512 1.152 1.088 2.688 1.536 3.968 2.432l0.896 0.64c1.408 0.832 2.56 2.048 4.032 2.688 0.384 0.192 0.832 0.256 1.216 0.384 1.792 0.704 3.712 0.832 5.632 1.28 1.792 0.32 3.52 0.896 5.376 0.96l0.64 0.128 0.576-0.128c1.856 0 3.584-0.64 5.376-1.024 1.92-0.384 3.84-0.512 5.632-1.216l1.152-0.384c1.472-0.64 2.624-1.856 4.032-2.688l0.96-0.64c1.28-0.896 2.752-1.28 3.968-2.432 0.128-0.128 0.192-0.384 0.384-0.512l0.896-0.896 0.448-0.384 220.736-238.528a32 32 0 0 0-46.976-43.456l-165.248 178.56V87.68a32 32 0 0 0-64 0V627.2L315.328 448.448a32 32 0 0 0-46.976 43.52l220.672 238.528z" fill="#62a0fe" p-id="33813"></path></svg>