<?xml version="1.0" standalone="no"?><!DOCTYPE svg PUBLIC "-//W3C//DTD SVG 1.1//EN" "http://www.w3.org/Graphics/SVG/1.1/DTD/svg11.dtd"><svg t="1563700932064" class="icon" viewBox="0 0 1024 1024" version="1.1" xmlns="http://www.w3.org/2000/svg" p-id="35399" xmlns:xlink="http://www.w3.org/1999/xlink" width="200" height="200"><defs><style type="text/css"></style></defs><path d="M62.451613 627.612903a340.645161 145.032258 0 1 0 681.290322 0 340.645161 145.032258 0 1 0-681.290322 0Z" fill="#FFB600" p-id="35400"></path><path d="M62.451613 633.290323a340.645161 145.032258 0 1 0 681.290322 0 340.645161 145.032258 0 1 0-681.290322 0Z" fill="#FFB600" p-id="35401"></path><path d="M62.451613 638.967742a340.645161 145.032258 0 1 0 681.290322 0 340.645161 145.032258 0 1 0-681.290322 0Z" fill="#FF8F3B" p-id="35402"></path><path d="M62.451613 622.451613a340.645161 145.032258 0 1 0 681.290322 0 340.645161 145.032258 0 1 0-681.290322 0Z" fill="#FCDC06" p-id="35403"></path><path d="M104.774194 585.806452a340.645161 145.032258 0 1 0 681.290322 0 340.645161 145.032258 0 1 0-681.290322 0Z" fill="#FFB600" p-id="35404"></path><path d="M104.774194 591.483871a340.645161 145.032258 0 1 0 681.290322 0 340.645161 145.032258 0 1 0-681.290322 0Z" fill="#FFB600" p-id="35405"></path><path d="M104.774194 597.16129a340.645161 145.032258 0 1 0 681.290322 0 340.645161 145.032258 0 1 0-681.290322 0Z" fill="#FF8F3B" p-id="35406"></path><path d="M104.774194 580.129032a340.645161 145.032258 0 1 0 681.290322 0 340.645161 145.032258 0 1 0-681.290322 0Z" fill="#FCDC06" p-id="35407"></path><path d="M71.225806 537.806452a340.645161 145.032258 0 1 0 681.290323 0 340.645161 145.032258 0 1 0-681.290323 0Z" fill="#FFB600" p-id="35408"></path><path d="M71.225806 543.483871a340.645161 145.032258 0 1 0 681.290323 0 340.645161 145.032258 0 1 0-681.290323 0Z" fill="#FFB600" p-id="35409"></path><path d="M71.225806 549.16129a340.645161 145.032258 0 1 0 681.290323 0 340.645161 145.032258 0 1 0-681.290323 0Z" fill="#FF8F3B" p-id="35410"></path><path d="M71.225806 532.645161a340.645161 145.032258 0 1 0 681.290323 0 340.645161 145.032258 0 1 0-681.290323 0Z" fill="#FCDC06" p-id="35411"></path><path d="M65.548387 459.354839a340.645161 145.032258 0 1 0 681.290323 0 340.645161 145.032258 0 1 0-681.290323 0Z" fill="#FFB600" p-id="35412"></path><path d="M65.548387 465.032258a340.645161 145.032258 0 1 0 681.290323 0 340.645161 145.032258 0 1 0-681.290323 0Z" fill="#FFB600" p-id="35413"></path><path d="M65.548387 470.709677a340.645161 145.032258 0 1 0 681.290323 0 340.645161 145.032258 0 1 0-681.290323 0Z" fill="#FFB600" p-id="35414"></path><path d="M65.548387 453.677419a340.645161 145.032258 0 1 0 681.290323 0 340.645161 145.032258 0 1 0-681.290323 0Z" fill="#FCDC06" p-id="35415"></path><path d="M40.258065 394.83871a340.645161 145.032258 0 1 0 681.290322 0 340.645161 145.032258 0 1 0-681.290322 0Z" fill="#FFB600" p-id="35416"></path><path d="M40.258065 400.516129a340.645161 145.032258 0 1 0 681.290322 0 340.645161 145.032258 0 1 0-681.290322 0Z" fill="#FFB600" p-id="35417"></path><path d="M40.258065 406.193548a340.645161 145.032258 0 1 0 681.290322 0 340.645161 145.032258 0 1 0-681.290322 0Z" fill="#FFB600" p-id="35418"></path><path d="M40.258065 389.16129a340.645161 145.032258 0 1 0 681.290322 0 340.645161 145.032258 0 1 0-681.290322 0Z" fill="#FCDC06" p-id="35419"></path><path d="M65.548387 459.354839a340.645161 145.032258 0 1 0 681.290323 0 340.645161 145.032258 0 1 0-681.290323 0Z" fill="#FFB600" p-id="35420"></path><path d="M65.548387 465.032258a340.645161 145.032258 0 1 0 681.290323 0 340.645161 145.032258 0 1 0-681.290323 0Z" fill="#FFB600" p-id="35421"></path><path d="M65.548387 470.709677a340.645161 145.032258 0 1 0 681.290323 0 340.645161 145.032258 0 1 0-681.290323 0Z" fill="#FF8F3B" p-id="35422"></path><path d="M65.548387 453.677419a340.645161 145.032258 0 1 0 681.290323 0 340.645161 145.032258 0 1 0-681.290323 0Z" fill="#FCDC06" p-id="35423"></path><path d="M11.870968 406.193548a340.645161 145.032258 0 1 0 681.290322 0 340.645161 145.032258 0 1 0-681.290322 0Z" fill="#FFB600" p-id="35424"></path><path d="M11.870968 411.870968a340.645161 145.032258 0 1 0 681.290322 0 340.645161 145.032258 0 1 0-681.290322 0Z" fill="#FFB600" p-id="35425"></path><path d="M11.870968 417.548387a340.645161 145.032258 0 1 0 681.290322 0 340.645161 145.032258 0 1 0-681.290322 0Z" fill="#FF8F3B" p-id="35426"></path><path d="M11.870968 400.516129a340.645161 145.032258 0 1 0 681.290322 0 340.645161 145.032258 0 1 0-681.290322 0Z" fill="#FCDC06" p-id="35427"></path><path d="M107.354839 322.064516a340.645161 145.032258 0 1 0 681.290322 0 340.645161 145.032258 0 1 0-681.290322 0Z" fill="#FFB600" p-id="35428"></path><path d="M107.354839 327.741935a340.645161 145.032258 0 1 0 681.290322 0 340.645161 145.032258 0 1 0-681.290322 0Z" fill="#FFB600" p-id="35429"></path><path d="M107.354839 332.903226a340.645161 145.032258 0 1 0 681.290322 0 340.645161 145.032258 0 1 0-681.290322 0Z" fill="#FF8F3B" p-id="35430"></path><path d="M107.354839 316.387097a340.645161 145.032258 0 1 0 681.290322 0 340.645161 145.032258 0 1 0-681.290322 0Z" fill="#FCDC06" p-id="35431"></path><path d="M351.483871 267.870968l43.354839 25.290322c13.935484 8.258065 24.258065 13.419355 29.419355 15.483871v0.516129c-13.419355 4.129032-44.387097 16.516129-91.354839 35.612904l-7.225807 29.419354L428.387097 330.83871l-3.612903 51.096774 26.32258 4.645161 1.548387-61.935484 35.612904 3.096774 2.580645 66.580646 33.032258 6.193548-6.709678-70.193548 65.548387 5.677419-6.709677-32-61.419355-3.096774-4.645161-48.516129-24.774194 1.548387 2.064516 46.451613-34.064516-1.548387 1.032258-44.387097-20.645161 0.516129-2.580645 36.129032L356.129032 248.774194l-4.645161 19.096774z m0 0" fill="#FF8F3B" p-id="35432"></path><path d="M680.258065 587.354839m-284.903226 0a284.903226 284.903226 0 1 0 569.806451 0 284.903226 284.903226 0 1 0-569.806451 0Z" fill="#FCDC06" p-id="35433"></path><path d="M748.387097 436.129032l-44.903226 82.580645c-12.387097 22.709677-18.580645 38.709677-21.677419 43.870968h-0.516129c-8.258065-15.483871-30.967742-56.774194-68.129033-123.870968h-42.838709l80 134.193549h-67.096775v30.967742h82.580646v36.129032h-82.580646v36.129032h82.580646v61.935484h30.967742v-61.935484h77.419354v-36.129032h-77.419354v-36.129032h77.419354v-30.967742h-64l81.032258-134.193549H748.387097v-2.580645z m2.064516 0" fill="#FE881F" p-id="35434"></path><path d="M922.83871 172.387097l-27.354839 27.870968c-7.225806 7.741935-11.870968 12.903226-13.935484 15.48387h-0.516129c-1.032258-8.258065-5.16129-27.870968-11.870968-58.838709l-17.032258-4.645161 15.483871 62.967741-25.806451-7.225806-3.612904 11.870968 29.935484 8.774193-4.645161 16.516129-29.935484-8.774193-3.612903 11.870968 29.935484 8.774193-6.709678 23.741936 14.967742 4.129032 6.709678-23.741936 28.903225 8.258065 3.612904-11.870968-28.903226-8.258064 4.645161-16.516129 28.903226 8.258064 3.612903-11.870968-24.774193-7.225806 47.483871-44.903226-15.483871-4.645161z m0 0" fill="#FF8F3B" p-id="35435"></path><path d="M987.354839 349.419355l-2.580645 21.16129c-0.516129 5.677419-1.032258 9.290323-1.032259 11.354839-3.096774-3.096774-11.354839-10.322581-24.774193-21.16129l-8.774194 3.612903 27.870968 21.677419-13.419355 5.677419 2.580645 6.193549 16-6.193549 3.612904 8.774194-16 6.193548 2.580645 6.193549 16-6.193549 5.16129 12.387097 7.741936-3.096774-5.161291-12.387097 15.483871-6.193548-2.580645-6.193549-15.483871 6.193549-3.612903-8.774194 15.483871-6.193548-2.580645-6.193548-12.903226 5.16129 5.16129-35.096774-8.774193 3.096774z m0 0" fill="#FCDC06" p-id="35436"></path></svg>