<?xml version="1.0" standalone="no"?><!DOCTYPE svg PUBLIC "-//W3C//DTD SVG 1.1//EN" "http://www.w3.org/Graphics/SVG/1.1/DTD/svg11.dtd"><svg t="1563677753783" class="icon" viewBox="0 0 1097 1024" version="1.1" xmlns="http://www.w3.org/2000/svg" p-id="29798" xmlns:xlink="http://www.w3.org/1999/xlink" width="214.2578125" height="200"><defs><style type="text/css"></style></defs><path d="M548.571429 0C282.624 0 0 85.869714 0 244.882286v503.076571C0 897.609143 251.172571 1024 548.571429 1024c297.325714 0 548.571429-126.390857 548.571428-276.041143V244.882286C1097.142857 85.869714 814.445714 0 548.571429 0z m0 89.088c283.209143 0 457.142857 90.697143 457.142857 155.794286 0 65.097143-173.933714 155.794286-457.142857 155.794285s-457.142857-90.697143-457.142858-155.794285c0-65.097143 173.933714-155.794286 457.142858-155.794286z m0 845.897143c-274.797714 0-457.142857-112.64-457.142858-187.026286V637.074286c98.304 72.118857 266.386286 119.808 457.142858 119.808 190.683429 0 358.765714-47.689143 457.142857-119.808v110.884571c0 74.459429-182.345143 187.026286-457.142857 187.026286z m0-267.117714c-257.462857 0-457.142857-95.744-457.142858-178.102858V384.146286c104.740571 69.12 284.233143 105.618286 457.142858 105.618285s352.402286-36.571429 457.142857-105.618285v105.618285c0 82.358857-199.68 178.102857-457.142857 178.102858z" p-id="29799" fill="#fa5c48"></path></svg>