<?xml version="1.0" standalone="no"?><!DOCTYPE svg PUBLIC "-//W3C//DTD SVG 1.1//EN" "http://www.w3.org/Graphics/SVG/1.1/DTD/svg11.dtd"><svg t="1563678095678" class="icon" viewBox="0 0 1025 1024" version="1.1" xmlns="http://www.w3.org/2000/svg" p-id="31370" xmlns:xlink="http://www.w3.org/1999/xlink" width="200.1953125" height="200"><defs><style type="text/css"></style></defs><path d="M511.628 213.885c-22.501 0-39.375 16.872-39.375 33.749v264.368c0 11.249 5.626 16.875 5.626 22.496l151.868 185.621c5.626 11.247 16.874 16.875 28.127 16.875 5.621 0 16.874 0 22.496-5.627 16.874-11.247 16.874-33.747 5.626-50.622l-134.994-179.997v-253.114c0-16.875-16.875-33.747-39.375-33.747v0zM511.628 213.885z" p-id="31371" fill="#ff9447"></path><path d="M194.526 193.199c68.287-68.287 156.346-112.58 253.629-126.554 118.922-17.067 237.428 13.227 333.602 85.265 96.195 72.059 158.576 177.258 175.661 296.2 35.272 245.624-135.892 474.057-381.388 509.351-102.945 14.772-208.503-6.798-297.246-60.676-15.179-9.228-19.999-29.003-10.792-44.156 9.291-15.064 28.972-20.018 44.152-10.793 76.015 46.204 166.486 64.678 254.752 51.992 210.383-30.173 357.095-226.020 326.895-436.578-14.633-101.946-68.107-192.101-150.574-253.845-82.447-61.769-184.008-87.698-285.926-73.043-210.616 30.182-357.257 226.051-327.011 436.562 7.927 55.107 27.063 106.606 56.948 153.032 9.588 14.955 5.227 34.906-9.612 44.425-14.929 9.612-34.839 5.296-44.425-9.612-34.885-54.288-57.248-114.368-66.541-178.708-17.067-118.927 13.206-237.464 85.312-333.658 13.114-17.571 27.338-33.978 42.562-49.203v0 0zM194.526 193.199z" p-id="31372" fill="#ff9447"></path></svg>