<?xml version="1.0" standalone="no"?><!DOCTYPE svg PUBLIC "-//W3C//DTD SVG 1.1//EN" "http://www.w3.org/Graphics/SVG/1.1/DTD/svg11.dtd"><svg t="1562772268226" class="icon" viewBox="0 0 1045 1024" version="1.1" xmlns="http://www.w3.org/2000/svg" p-id="4378" xmlns:xlink="http://www.w3.org/1999/xlink" width="204.1015625" height="200"><defs><style type="text/css"></style></defs><path d="M887.040726 489.600334a154.239904 154.239904 0 0 0-69.759957 16.63999v-23.679986a45.439972 45.439972 0 0 0-44.799972-45.439971H44.801252a45.439972 45.439972 0 0 0-44.799972 45.439971v135.679916a399.99975 399.99975 0 0 0 80.63995 241.919848 410.239744 410.239744 0 0 0 655.99959 0 405.759746 405.759746 0 0 0 51.839967-92.159942 154.239904 154.239904 0 0 0 99.199938 35.839978 157.439902 157.439902 0 0 0 0-314.879804z m63.99996 157.439902a63.99996 63.99996 0 1 1-63.99996-63.99996 63.99996 63.99996 0 0 1 65.919958 63.99996z m-223.99986-119.039926v90.239944a310.399806 310.399806 0 0 1-63.99996 184.959884 319.9998 319.9998 0 0 1-515.199678 0 309.759806 309.759806 0 0 1-63.99996-184.959884V528.00031zM576.00092 230.400496a46.079971 46.079971 0 0 1 22.399986 35.199978 63.99996 63.99996 0 0 1-10.239994 32.63998 156.159902 156.159902 0 0 1-18.559988 24.959984 144.63991 144.63991 0 0 1-15.99999 15.99999 37.119977 37.119977 0 0 0-5.759996 51.839968 36.479977 36.479977 0 0 0 51.839967 5.759996l13.439992-12.799992a255.99984 255.99984 0 0 0 26.879983-26.879983 151.039906 151.039906 0 0 0 35.199978-92.799942 117.119927 117.119927 0 0 0-51.199968-92.799942c-18.559988-14.079991-27.519983-27.519983-26.879983-40.319975a51.839968 51.839968 0 0 1 10.879993-26.879983 140.799912 140.799912 0 0 1 24.319985-25.599984l7.679995-7.679995a37.119977 37.119977 0 0 0 11.519993-50.559969 37.119977 37.119977 0 0 0-51.199968-11.519993l-10.239994 6.399996a244.479847 244.479847 0 0 0-26.879983 24.319985A139.519913 139.519913 0 0 0 520.960954 128.00056a103.679935 103.679935 0 0 0 0 21.119987A127.99992 127.99992 0 0 0 576.00092 230.400496zM392.961034 230.400496a46.079971 46.079971 0 0 1 22.399986 35.199978 63.99996 63.99996 0 0 1-10.239993 32.63998 156.159902 156.159902 0 0 1-21.119987 24.959984 144.63991 144.63991 0 0 1-15.99999 15.99999 37.119977 37.119977 0 0 0-5.759996 51.839968 36.479977 36.479977 0 0 0 51.839967 5.759996l15.359991-12.799992a255.99984 255.99984 0 0 0 24.319984-28.159982 151.039906 151.039906 0 0 0 35.199978-92.799942 117.119927 117.119927 0 0 0-51.199968-92.799942c-18.559988-14.079991-27.519983-27.519983-26.879983-40.319975a51.839968 51.839968 0 0 1 10.879993-26.879983A140.799912 140.799912 0 0 1 448.001 78.720591l9.599994-7.679995a37.119977 37.119977 0 0 0 14.079991-53.759967 37.119977 37.119977 0 0 0-31.35998-17.279989 36.479977 36.479977 0 0 0-19.839988 5.759996l-14.079991 9.599994a245.119847 245.119847 0 0 0-26.879983 24.319985A139.519913 139.519913 0 0 0 337.281069 128.00056a103.039936 103.039936 0 0 0 0 21.119987 127.99992 127.99992 0 0 0 55.679965 81.279949zM209.921149 230.400496a46.079971 46.079971 0 0 1 22.399986 35.199978 63.99996 63.99996 0 0 1-10.239994 32.63998 154.879903 154.879903 0 0 1-18.559988 24.959984 144.63991 144.63991 0 0 1-15.99999 15.99999 37.119977 37.119977 0 0 0-5.759997 51.839968 36.479977 36.479977 0 0 0 51.839968 5.759996l12.799992-12.799992a255.99984 255.99984 0 0 0 24.319985-28.159982 151.039906 151.039906 0 0 0 35.199978-92.799942A117.119927 117.119927 0 0 0 256.00112 171.520533c-18.559988-14.079991-27.519983-27.519983-26.879983-40.319975a51.839968 51.839968 0 0 1 10.879993-26.879983 154.239904 154.239904 0 0 1 38.399976-36.479977 37.119977 37.119977 0 0 0 9.599994-50.559969 37.119977 37.119977 0 0 0-51.199968-11.519993l-14.079991 10.239994a245.759846 245.759846 0 0 0-26.879983 24.319985A139.519913 139.519913 0 0 0 154.241184 128.00056a103.679935 103.679935 0 0 0 0 21.119987 127.99992 127.99992 0 0 0 55.679965 81.279949z" p-id="4379" fill="#ffffff"></path></svg>