<?xml version="1.0" standalone="no"?><!DOCTYPE svg PUBLIC "-//W3C//DTD SVG 1.1//EN" "http://www.w3.org/Graphics/SVG/1.1/DTD/svg11.dtd"><svg t="1562764326728" class="icon" viewBox="0 0 1024 1024" version="1.1" xmlns="http://www.w3.org/2000/svg" p-id="1999" xmlns:xlink="http://www.w3.org/1999/xlink" width="200" height="200"><defs><style type="text/css"></style></defs><path d="M512 273.066667C303.786667 273.066667 136.533333 440.32 136.533333 648.533333s167.253333 375.466667 375.466667 375.466667 375.466667-167.253333 375.466667-375.466667S720.213333 273.066667 512 273.066667z m119.466667 559.786666L512 771.413333l-119.466667 64.853334 23.893334-133.12-98.986667-95.573334 133.12-20.48 61.44-122.88 61.44 122.88 133.12 20.48-98.986667 95.573334 23.893334 129.706666zM819.2 47.786667c6.826667-17.066667 0-37.546667-20.48-44.373334-3.413333-3.413333-6.826667-3.413333-13.653333-3.413333h-187.733334l-81.92 204.8c78.506667 0 153.6 20.48 215.04 58.026667L819.2 47.786667zM293.546667 262.826667C354.986667 225.28 430.08 204.8 508.586667 204.8L426.666667 0H238.933333c-6.826667 0-10.24 0-13.653333 3.413333-17.066667 6.826667-27.306667 27.306667-20.48 44.373334l88.746667 215.04z" fill="#ffffff" p-id="2000"></path></svg>