<?xml version="1.0" standalone="no"?><!DOCTYPE svg PUBLIC "-//W3C//DTD SVG 1.1//EN" "http://www.w3.org/Graphics/SVG/1.1/DTD/svg11.dtd"><svg t="1563676261383" class="icon" viewBox="0 0 1024 1024" version="1.1" xmlns="http://www.w3.org/2000/svg" p-id="28928" xmlns:xlink="http://www.w3.org/1999/xlink" width="200" height="200"><defs><style type="text/css"></style></defs><path d="M511.99 895.997h-85.336L192.004 1024V789.35C75.031 707.236 0 589.388 0 447.988 0 200.58 229.231 0 511.99 0s511.989 200.58 511.989 447.988c0.021 247.45-229.21 448.01-511.99 448.01z m0-832.017c-247.408 0-448.031 171.929-448.031 384.008 0 130.136 76.524 250.544 192.046 319.985v142.233l170.628-78.21h85.335c247.408 0 448.03-171.929 448.03-384.008 0.022-212.1-200.6-384.008-448.009-384.008z m256.026 448.01c-35.371 0-64.023-28.652-64.023-64.023s28.652-64.023 64.023-64.023c35.329 0 63.98 28.651 63.98 64.023s-28.651 64.022-63.98 64.022z m-256.027 0c-35.371 0-64.022-28.652-64.022-64.023s28.65-64.023 64.022-64.023c35.372 0 64.023 28.651 64.023 64.023s-28.651 64.022-64.023 64.022z m-256.005 0c-35.329 0-63.98-28.652-63.98-64.002s28.651-64.023 63.98-64.023c35.371 0 64.023 28.652 64.023 64.023s-28.673 64.001-64.023 64.001z" p-id="28929" fill="#ffb245"></path></svg>