<?xml version="1.0" standalone="no"?><!DOCTYPE svg PUBLIC "-//W3C//DTD SVG 1.1//EN" "http://www.w3.org/Graphics/SVG/1.1/DTD/svg11.dtd"><svg t="1562678391855" class="icon" viewBox="0 0 1024 1024" version="1.1" xmlns="http://www.w3.org/2000/svg" p-id="4264" xmlns:xlink="http://www.w3.org/1999/xlink" width="200" height="200"><defs><style type="text/css"></style></defs><path d="M303.431427 882.78857422H210.73428344c-27.80914307 0-46.34857177-18.53942872-46.34857177-46.34857178V187.55999756c0-27.80914307 18.53942872-46.34857177 46.34857177-46.34857178h92.69714356c27.80914307 0 46.34857177 18.53942872 46.34857178 46.34857178v648.88000488c0 27.80914307-18.53942872 46.34857177-46.34857178 46.34857178zM813.26571656 882.78857422h-92.69714356c-27.80914307 0-46.34857177-18.53942872-46.34857178-46.34857178V187.55999756c0-27.80914307 18.53942872-46.34857177 46.34857178-46.34857178h92.69714356c27.80914307 0 46.34857177 18.53942872 46.34857177 46.34857178v648.88000488c0 27.80914307-18.53942872 46.34857177-46.34857177 46.34857178z" fill="#ffffff" p-id="4265"></path></svg>